# xmcd
#
# Track frame offsets:
#	150
#	33234
#	63245
#	94012
#	128656
#	171867
#	198320
#	227529
#	248425
#	284528
#	316158
#	333891
#
# Disc length: 4707 seconds
#
# Revision: 1
# Processed by: cddbd v1.5.1PL0 Copyright (c) Steve Scherf et al.
# Submitted via: audiograbber 1.83.01
#
DISCID=9512610c
DTITLE=Various Artist - Граммофон 2. Передовой. (2002)
DYEAR=1900
DGENRE=
TTITLE0=Way Out West. - The Gift.
TTITLE1=Dj Paola and The Geezer. - The Fiction Of Science. (Tribal Physics)
TTITLE2=Jens O. - Remember The Day.
TTITLE3=Baz. - Promises. King Unique Strumdrum Vocal Mix)
TTITLE4=Bad Boy Bill feat. Nadine Renee. - Costa Del Sol.
TTITLE5=The Timewriter Introducing Jay. - So Free.
TTITLE6=Scsi-9. - Back Too.
TTITLE7=Mr. Negative. - Star Stangle Banger. (Original Ibiza Mix)
TTITLE8=Marshall Jefferson vs. Noosa Heads. - Mushrooms. (Salt City Orchestra R
TTITLE8=mx)
TTITLE9=Impossible Being. - Too Late. (Too Later Mix)
TTITLE10=Deep Blue. - The Helicopter Tune.
TTITLE11=Rantoul. - Modular.
EXTD=
EXTT0=
EXTT1=
EXTT2=
EXTT3=
EXTT4=
EXTT5=
EXTT6=
EXTT7=
EXTT8=
EXTT9=
EXTT10=
EXTT11=
PLAYORDER=
